<svg width="50" height="50" viewBox="0 0 50 50" fill="none" xmlns="http://www.w3.org/2000/svg">
<path fill-rule="evenodd" clip-rule="evenodd" d="M10.4167 19.3021C10.4167 11.2396 16.9375 4.71875 25 4.71875C33.0625 4.71875 39.5833 11.2396 39.5833 19.3021C39.5833 27.9896 30.375 39.9688 26.6042 44.5313C25.7708 45.5313 24.25 45.5313 23.4167 44.5313C19.625 39.9688 10.4167 27.9896 10.4167 19.3021ZM19.7917 19.3021C19.7917 22.1771 22.125 24.5104 25 24.5104C27.875 24.5104 30.2083 22.1771 30.2083 19.3021C30.2083 16.4271 27.875 14.0938 25 14.0938C22.125 14.0938 19.7917 16.4271 19.7917 19.3021Z" fill="#385197"/>
</svg>
