<svg width="50" height="50" viewBox="0 0 50 50" fill="none" xmlns="http://www.w3.org/2000/svg">
<path fill-rule="evenodd" clip-rule="evenodd" d="M8.33333 8.33337H41.6667C43.9583 8.33337 45.8333 10.2084 45.8333 12.5V37.5C45.8333 39.7917 43.9583 41.6667 41.6667 41.6667H8.33333C6.04167 41.6667 4.16667 39.7917 4.16667 37.5V12.5C4.16667 10.2084 6.04167 8.33337 8.33333 8.33337ZM27.2083 25.7084L40.8333 17.1875C41.3542 16.8542 41.6667 16.2917 41.6667 15.6875C41.6667 14.2917 40.1458 13.4584 38.9583 14.1875L25 22.9167L11.0417 14.1875C9.85417 13.4584 8.33333 14.2917 8.33333 15.6875C8.33333 16.2917 8.64583 16.8542 9.16667 17.1875L22.7917 25.7084C24.1458 26.5625 25.8542 26.5625 27.2083 25.7084Z" fill="#385197"/>
</svg>
