<svg width="50" height="50" viewBox="0 0 50 50" fill="none" xmlns="http://www.w3.org/2000/svg">
<path d="M40.0454 31.8087L34.7537 31.2045C33.4829 31.0587 32.2329 31.4962 31.3371 32.392L27.5037 36.2253C21.6079 33.2253 16.7746 28.4128 13.7746 22.4962L17.6287 18.642C18.5246 17.7462 18.9621 16.4962 18.8162 15.2253L18.2121 9.97534C17.9621 7.87118 16.1912 6.28784 14.0662 6.28784H10.4621C8.1079 6.28784 6.14957 8.24617 6.2954 10.6003C7.39957 28.392 21.6287 42.6003 39.3996 43.7045C41.7537 43.8503 43.7121 41.892 43.7121 39.5378V35.9337C43.7329 33.8295 42.1496 32.0587 40.0454 31.8087Z" fill="#385197"/>
</svg>
